<?xml version="1.0" standalone="no"?>
<!DOCTYPE svg PUBLIC "-//W3C//DTD SVG 1.1//EN" "http://www.w3.org/Graphics/SVG/1.1/DTD/svg11.dtd">
<svg version="1.1" xmlns="http://www.w3.org/2000/svg" viewBox="0 0 47.04707468466472 94.68962348136847" width="94.09414936932944" height="189.37924696273694"><!-- svg-source:excalidraw --><metadata></metadata><defs><style class="style-fonts">
      </style></defs><g transform="translate(10 10.248153410278974) rotate(0 13.52353734233236 37.09665833040526)" stroke="none"><path fill="#d3d3d3" d="M 0,-2.51 Q 0,-2.51 0.57,-2.55 1.14,-2.60 2.30,-2.81 3.46,-3.02 4.55,-3.13 5.64,-3.24 6.94,-3.16 8.25,-3.08 9.24,-2.63 10.22,-2.18 11.02,-1.46 11.82,-0.74 13.11,0.59 14.40,1.92 15.18,3.26 15.97,4.61 16.51,5.63 17.05,6.65 17.83,7.94 18.62,9.22 19.32,10.96 20.02,12.70 20.27,13.85 20.51,15.01 20.80,16.45 21.09,17.90 21.24,18.97 21.40,20.05 21.44,21.64 21.48,23.22 21.48,24.83 21.49,26.44 21.49,27.94 21.49,29.44 21.49,30.57 21.48,31.71 21.39,32.95 21.30,34.19 21.17,35.62 21.04,37.05 20.93,38.31 20.82,39.56 20.78,40.65 20.74,41.74 20.61,43.17 20.49,44.61 20.24,46.16 20.00,47.70 19.93,49.35 19.87,51.00 19.87,52.11 19.87,53.23 19.82,55.02 19.78,56.80 19.77,58.49 19.75,60.17 19.77,61.42 19.78,62.67 19.85,63.73 19.93,64.80 20.12,66.21 20.32,67.63 21.06,68.57 21.79,69.50 23.28,70.08 24.76,70.66 24.09,71.51 23.41,72.35 23.64,71.80 23.87,71.24 24.27,70.78 24.66,70.33 25.18,70.03 25.70,69.72 26.29,69.60 26.88,69.47 27.48,69.55 28.08,69.62 28.62,69.88 29.17,70.14 29.60,70.56 30.03,70.98 30.31,71.51 30.58,72.05 30.68,72.64 30.77,73.24 30.66,73.83 30.56,74.43 30.27,74.95 29.98,75.48 29.54,75.89 29.10,76.30 28.55,76.55 28.00,76.80 27.40,76.85 26.80,76.91 26.21,76.78 25.62,76.64 25.11,76.32 24.60,76.01 24.21,75.54 23.83,75.08 23.61,74.52 23.40,73.95 23.37,73.35 23.34,72.75 23.51,72.17 23.68,71.59 24.02,71.10 24.37,70.60 24.85,70.24 25.34,69.89 25.91,69.70 26.48,69.51 27.08,69.52 27.69,69.53 28.26,69.73 28.82,69.93 29.30,70.30 29.78,70.67 30.11,71.17 30.44,71.67 30.59,72.25 30.75,72.84 30.71,73.44 30.67,74.04 30.67,74.04 30.67,74.04 27.67,76.09 24.67,78.15 23.52,77.94 22.38,77.74 21.37,77.22 20.36,76.71 19.35,76.24 18.34,75.78 17.33,74.92 16.32,74.06 15.36,72.56 14.40,71.06 13.88,69.62 13.36,68.18 13.23,67.04 13.10,65.90 13.03,64.28 12.97,62.67 12.98,61.42 12.99,60.17 12.98,58.49 12.96,56.80 12.92,55.61 12.88,54.43 12.88,53.22 12.89,52.01 12.91,50.64 12.92,49.28 13.02,47.28 13.12,45.29 13.27,44.00 13.42,42.72 13.49,41.41 13.56,40.09 13.68,38.36 13.80,36.62 13.92,35.46 14.03,34.30 14.14,33.00 14.24,31.71 14.23,30.57 14.23,29.44 14.23,27.94 14.24,26.45 14.23,24.86 14.23,23.27 14.20,21.69 14.17,20.11 13.83,18.55 13.48,16.98 13.35,15.65 13.22,14.32 12.71,13.21 12.19,12.10 11.59,11.10 10.99,10.10 10.42,8.75 9.85,7.40 9.00,6.04 8.15,4.69 7.49,3.76 6.83,2.83 5.64,2.69 4.44,2.56 2.79,2.58 1.14,2.60 0.57,2.55 0,2.51 -0.30,2.47 -0.60,2.44 -0.88,2.33 -1.16,2.22 -1.41,2.05 -1.66,1.88 -1.86,1.65 -2.06,1.42 -2.20,1.15 -2.34,0.89 -2.42,0.59 -2.49,0.30 -2.49,-0.00 -2.49,-0.30 -2.42,-0.59 -2.34,-0.89 -2.20,-1.15 -2.06,-1.42 -1.86,-1.65 -1.66,-1.88 -1.41,-2.05 -1.16,-2.22 -0.88,-2.33 -0.60,-2.44 -0.30,-2.47 0.00,-2.51 0.00,-2.51 L 0,-2.51 Z"></path></g></svg>